<svg xmlns="http://www.w3.org/2000/svg" width="512" height="512"><rect id="backgroundrect" width="100%" height="100%" x="0" y="0" fill="none" stroke="none"/><g class="currentLayer" style=""><title>Layer 1</title><path d="M336 96c21.2 0 41.3 8.4 56.5 23.5S416 154.8 416 176v160c0 21.2-8.4 41.3-23.5 56.5S357.2 416 336 416H176c-21.2 0-41.3-8.4-56.5-23.5S96 357.2 96 336V176c0-21.2 8.4-41.3 23.5-56.5S154.8 96 176 96h160m0-32H176c-61.6 0-112 50.4-112 112v160c0 61.6 50.4 112 112 112h160c61.6 0 112-50.4 112-112V176c0-61.6-50.4-112-112-112z" id="svg_1" class="" fill="#dadada" fill-opacity="1" stroke="none"/><path d="M360 176c-13.3 0-24-10.7-24-24s10.7-24 24-24c13.2 0 24 10.7 24 24s-10.8 24-24 24zM256 192c35.3 0 64 28.7 64 64s-28.7 64-64 64-64-28.7-64-64 28.7-64 64-64m0-32c-53 0-96 43-96 96s43 96 96 96 96-43 96-96-43-96-96-96z" id="svg_2" class="selected" fill="#dadada" fill-opacity="1" filter="url(#f205)"/></g><defs><filter xmlns:inkscape="http://www.inkscape.org/namespaces/inkscape" id="f205" inkscape:label="Clean edges" inkscape:menu="ABCs" inkscape:menu-tooltip="Removes or decreases glows and jaggeries around objects edges after applying some filters" height="1" width="1" y="0" x="0" color-interpolation-filters="sRGB">
            <feGaussianBlur result="result6" stdDeviation=".4"/>
            <feComposite in2="result6" operator="in" in="SourceGraphic" result="result7"/>
            <feComposite operator="in" in2="result7" result="result8" in="result7"/>
        </filter></defs></svg>